<?xml version="1.0" encoding="UTF-8" standalone="no"?>
<svg
   version="1.1"
   height="512"
   viewBox="0 0 43.193452 72.564998"
   style="clip-rule:evenodd;fill-rule:evenodd;stroke-linejoin:round;stroke-miterlimit:2"
   id="svg1"
   width="512"
   xmlns="http://www.w3.org/2000/svg"
   xmlns:svg="http://www.w3.org/2000/svg">
  <defs
     id="defs1" />
  <path
     id="Logo"
     d="m 30.849484,25.633494 c -1.668,-2.343 -1.452,-5.619 0.648,-7.72 2.341998,-2.341 6.143998,-2.341 8.485998,0 2.341,2.342 2.341,6.144 0,8.486 -2.101,2.1 -5.377,2.316 -7.719998,0.648 l -4.345,4.345 c 2.238,2.877 2.238,6.935 0,9.812 l 4.345,4.345 c 2.342998,-1.668 5.618998,-1.452 7.719998,0.649 2.341,2.341 2.341,6.143 0,8.485 -2.101,2.101 -5.377,2.317 -7.719998,0.648 l -4.345,4.346 c 2.441,3.137 2.219,7.68 -0.663,10.562 -3.122,3.122 -8.192,3.122 -11.314,0 -3.122,-3.122 -3.122,-8.191 0,-11.313 2.883,-2.883 7.426,-3.104 10.563,-0.664 l 4.345,-4.345 c -1.477,-2.074 -1.477,-4.88 0,-6.953 l -4.345,-4.346 c -3.137,2.441 -7.68,2.22 -10.563,-0.663 -1.306,-1.306 -2.066,-2.954 -2.279,-4.657 H 1.2504843 c -0.213,1.703 -0.973,3.351 -2.28,4.657 -3.122,3.122 -8.191,3.122 -11.3130003,0 -3.122,-3.122 -3.122,-8.192 0,-11.314 3.1220003,-3.122 8.1910003,-3.122 11.3130003,0 1.307,1.307 2.067,2.954 2.28,4.657 H 13.662484 c 0.213,-1.703 0.973,-3.35 2.279,-4.657 2.883,-2.882 7.426,-3.103 10.563,-0.663 z m -13.494,34.707 c 2.342,-2.342 6.144,-2.342 8.486,0 2.341,2.341 2.341,6.144 0,8.485 -2.342,2.342 -6.144,2.342 -8.486,0 -2.341,-2.341 -2.341,-6.144 0,-8.485 z m -15.5559997,-15.557 c 3.122,-3.122 8.1919997,-3.122 11.3139997,0 3.122,3.123 3.122,8.192 0,11.314 -3.122,3.122 -8.1919997,3.122 -11.3139997,0 -3.122,-3.122 -3.122,-8.191 0,-11.314 z m 1.414,1.415 c 2.342,-2.342 6.144,-2.342 8.4849997,0 2.342,2.341 2.342,6.143 0,8.485 -2.3409997,2.342 -6.1429997,2.342 -8.4849997,0 -2.341,-2.342 -2.341,-6.144 0,-8.485 z m 41.0119977,-15.557 c 3.122,-3.122 8.192,-3.122 11.314,0 3.122,3.122 3.122,8.192 0,11.314 -3.122,3.122 -8.192,3.122 -11.314,0 -3.122,-3.122 -3.122,-8.192 0,-11.314 z m 1.415,1.415 c 2.341,-2.342 6.143,-2.342 8.485,0 2.341,2.341 2.341,6.143 0,8.485 -2.342,2.341 -6.144,2.341 -8.485,0 -2.342,-2.342 -2.342,-6.144 0,-8.485 z m -28.284998,0 c 2.342,-2.342 6.144,-2.342 8.486,0 2.341,2.341 2.341,6.143 0,8.485 -2.342,2.341 -6.144,2.341 -8.486,0 -2.341,-2.342 -2.341,-6.144 0,-8.485 z m -28.284,0 c 2.3420003,-2.342 6.1440003,-2.342 8.4850003,0 2.342,2.341 2.342,6.143 0,8.485 -2.341,2.341 -6.143,2.341 -8.4850003,0 -2.342,-2.342 -2.342,-6.144 0,-8.485 z m 26.207,-19.136 c -2.441,-3.1370001 -2.22,-7.6800005 0.663,-10.5630005 3.122,-3.12200008 8.192,-3.12200008 11.314,0 3.122,3.122 3.122,8.1920005 0,11.3140005 -2.883,2.882 -7.426,3.104 -10.563,0.663 l -4.345,4.345 c 1.668,2.343 1.452,5.619 -0.649,7.72 -2.3409997,2.341 -6.1429997,2.341 -8.4849997,0 -2.341,-2.342 -2.341,-6.144 0,-8.486 2.101,-2.1 5.377,-2.316 7.7199997,-0.648 z m 2.077,-9.1490005 c 2.342,-2.341 6.144,-2.341 8.486,0 2.341,2.342 2.341,6.1440005 0,8.4860005 -2.342,2.341 -6.144,2.341 -8.486,0 -2.341,-2.342 -2.341,-6.1440005 0,-8.4860005 z"
     style="fill:#3f92dd;fill-rule:evenodd" />
</svg>
